<svg aria-hidden="true" style="position:absolute;width:0;height:0" xmlns="http://www.w3.org/2000/svg" overflow="hidden"><defs><symbol id="icon-facebook" viewBox="0 0 32 32"><path d="M21.328 5.312h2.923V.224A36.483 36.483 0 0020.143 0h-.156.008c-4.213 0-7.099 2.65-7.099 7.52V12H8.25v5.688h4.646V32h5.699V17.69h4.459l.707-5.688h-5.168V8.08c0-1.643.443-2.768 2.734-2.768z"/></symbol><symbol id="icon-instagram" viewBox="0 0 32 32"><path d="M31.968 9.408c-.074-1.701-.349-2.869-.744-3.882a7.84 7.84 0 00-1.847-2.837l-.001-.001A7.906 7.906 0 0026.598.861l-.054-.018C25.523.449 24.362.176 22.661.101 20.949.019 20.405 0 16.059 0c-4.344 0-4.888.019-6.595.094-1.701.074-2.869.349-3.88.742a7.847 7.847 0 00-2.839 1.85l-.001.001A7.9 7.9 0 00.919 5.465l-.018.054C.506 6.538.232 7.7.157 9.401c-.082 1.712-.101 2.256-.101 6.602 0 4.344.019 4.888.094 6.595.075 1.701.35 2.869.744 3.882a7.915 7.915 0 001.849 2.837l.001.001c.8.813 1.77 1.443 2.832 1.843 1.019.395 2.182.67 3.882.744 1.707.075 2.251.094 6.595.094 4.346 0 4.89-.019 6.595-.094 1.701-.074 2.869-.349 3.882-.742a8.237 8.237 0 004.664-4.628l.019-.055c.394-1.019.669-2.182.744-3.882.075-1.707.093-2.251.093-6.595s-.006-4.888-.08-6.595zm-2.88 13.066c-.07 1.563-.333 2.406-.552 2.97a5.336 5.336 0 01-3.001 3.024l-.036.013c-.563.219-1.413.482-2.97.55-1.688.075-2.194.094-6.464.094-4.269 0-4.782-.019-6.464-.094-1.563-.069-2.406-.331-2.97-.55a4.953 4.953 0 01-1.836-1.192l-.001-.001a4.978 4.978 0 01-1.184-1.803l-.011-.034c-.218-.563-.48-1.413-.549-2.97-.075-1.688-.094-2.195-.094-6.464 0-4.27.019-4.784.094-6.464.069-1.563.331-2.406.549-2.97a4.897 4.897 0 011.198-1.837l.002-.002a4.972 4.972 0 011.806-1.182l.034-.011c.56-.219 1.411-.48 2.968-.55 1.688-.074 2.194-.093 6.464-.093 4.275 0 4.782.019 6.464.093 1.562.069 2.406.331 2.97.55a4.91 4.91 0 011.837 1.194c.531.52.938 1.144 1.195 1.84.218.56.48 1.411.549 2.968.075 1.688.094 2.194.094 6.464 0 4.269-.019 4.768-.094 6.458z"/><path d="M16.059 7.782a8.223 8.223 0 00-8.219 8.221v.002a8.222 8.222 0 1016.444 0 8.222 8.222 0 00-8.222-8.222h-.002zm0 13.552a5.333 5.333 0 01.001-10.666h.001a5.334 5.334 0 110 10.668zM26.525 7.458a1.92 1.92 0 01-3.84 0 1.92 1.92 0 013.84 0z"/></symbol><symbol id="icon-linkedin" viewBox="0 0 32 32"><path d="M31.992 32H32V20.262c0-5.741-1.237-10.163-7.947-10.163-3.227 0-5.392 1.77-6.277 3.45h-.093v-2.914h-6.365v21.363h6.627V21.42c0-2.786.528-5.48 3.978-5.48 3.398 0 3.448 3.179 3.448 5.658V32h6.621zM.528 10.635h6.635V32H.528V10.635zM3.843 0A3.843 3.843 0 000 3.843c0 2.12 1.722 3.878 3.843 3.878 2.12 0 3.842-1.757 3.842-3.878S5.965.002 3.844 0z"/></symbol><symbol id="icon-Logo" viewBox="0 0 39 32"><path d="M21.575 8.435l-.655-.5a.499.499 0 00-.7.07l-.001.001-9.065 10.41.14.155 2.245-2.07a.345.345 0 01.129-.665h.007c.152 0 .281.1.324.238l.001.002 2.96-2.745a.253.253 0 01.32.001l.15.11a.25.25 0 00.335-.039l3.87-4.34a.413.413 0 00-.059-.625l-.001-.001z"/><path d="M25.835 11.365a19.985 19.985 0 01-6.418 3.042l-.142.033c-2.101.558-4.544.938-7.055 1.057l-.08.003c.049.355.136.704.26 1.04 1.36 1.23 11.6-.87 13.6-3.3.425-.505-.165-1.875-.165-1.875zM13.675 16.5a.34.34 0 11.34-.34v.006c0 .185-.15.334-.335.334h-.006zM4 10.645l.08-.345 1.3.295c.107.198.173.415.195.64.025.238.01.477-.045.71-.069.337-.22.632-.432.872l.002-.002a1.733 1.733 0 01-.758.497l-.012.003a1.801 1.801 0 01-.538.081c-.144 0-.285-.017-.42-.048l.012.002a1.756 1.756 0 01-.836-.441l.001.001a1.651 1.651 0 01-.472-.773l-.003-.012a1.886 1.886 0 01.004-1.013l-.003.013c.054-.245.15-.479.285-.69.129-.192.297-.349.493-.461l.007-.004.18.275a1.437 1.437 0 00-.659.961l-.001.009a1.54 1.54 0 00.018.796L2.395 12c.067.243.2.463.385.635.19.184.427.31.685.365.25.07.515.07.765 0a1.47 1.47 0 00.625-.405c.175-.201.295-.444.35-.705a1.528 1.528 0 00-.064-.965l.004.01L4 10.645zM6.83 7.5L5.665 9.055l.5.895-.23.31-1.85-3.375.215-.295 3.765.81-.235.31-1-.21zm-.33-.08l-2-.45 1 1.795 1-1.345zm0-3.145l.3-.225L8.705 6.6l1.57-1.175.19.255L8.6 7.075l-2.1-2.8zM9.65 2.19l.335-.15 1.32 2.89 1.785-.81.13.29-2.12.965L9.65 2.19zm6.59 1.15l.075.315-2.41.565-.8-3.41 2.34-.545.07.31-2 .465.285 1.21 1.76-.415.075.31-1.765.41.3 1.265 2.07-.48zm3.435.125l-.835-1.1a2.615 2.615 0 01-.28 0l-.94.03.035 1.11h-.37l-.115-3.5L18.5 0a1.569 1.569 0 011.064.288l-.005-.003c.251.203.41.511.41.857v.014-.001c.015.247-.05.492-.185.7a1.174 1.174 0 01-.572.423l-.008.002.875 1.17-.405.015zm-.35-1.645a.792.792 0 00.255-.658V1.148a.8.8 0 00-.294-.621l-.001-.001a1.204 1.204 0 00-.79-.204h.005l-.95.035.06 1.75.93-.03a1.19 1.19 0 00.787-.257l-.003.002zm2.995.715l-.18 1.195-.365-.055.185-1.175L20.925 0l.39.06.885 2.13L23.7.425l.35.075-1.73 2.035zm4.945-.21l.435.565-.19.15-.435-.58-.275.655-.21-.09.28-.655-.72.095v-.24l.71-.08-.44-.565.195-.15L27 2l.27-.66.215.09-.255.67.72-.1v.245l-.685.08zm1.67 4.03a1.363 1.363 0 01-.214-.599l-.001-.006.295-.13c.022.198.087.389.19.56.111.191.258.361.43.5.172.165.395.279.644.314l.006.001a.544.544 0 00.469-.194l.001-.001a.451.451 0 00.117-.302l-.002-.039v.002a.918.918 0 00-.122-.349l.002.004a5.1 5.1 0 00-.314-.457l.009.012a4.493 4.493 0 01-.348-.527l-.012-.023a.987.987 0 01-.13-.469v-.001a.74.74 0 01.195-.5.918.918 0 01.409-.283l.006-.002a1.002 1.002 0 01.562.002l-.007-.002c.245.082.457.204.637.362l-.002-.002c.154.128.29.276.405.44.106.152.185.321.235.5l-.285.15a1.74 1.74 0 00-.224-.476l.004.006a1.853 1.853 0 00-.331-.342l-.004-.003a1.106 1.106 0 00-.64-.304h-.005a.537.537 0 00-.469.204l-.001.001a.427.427 0 00-.114.342v-.002a.82.82 0 00.12.355c.07.115.17.265.305.445.134.17.254.351.36.54.08.135.129.296.135.468v.002a.74.74 0 01-.195.5.891.891 0 01-.414.283l-.006.002a.94.94 0 01-.561-.002l.007.002a1.847 1.847 0 01-.642-.362l.002.002a2.295 2.295 0 01-.494-.608l-.006-.012zm5.03.73l-.705-1 .26-.185 1.625 2.32-.26.185-.705-1-2.61 1.825-.21-.305 2.605-1.84zm-1.12 4.11c.094-.312.268-.577.498-.778l.002-.002c.224-.201.501-.347.808-.413l.012-.002a1.836 1.836 0 01.953.038l-.013-.004c.304.102.562.275.764.498l.001.002c.208.238.358.533.423.858l.002.012a1.88 1.88 0 01-.003.978l.003-.013c-.097.311-.27.575-.498.779l-.002.001a1.85 1.85 0 01-1.798.387l.013.004a1.68 1.68 0 01-.763-.498l-.002-.002a1.877 1.877 0 01-.423-.853l-.002-.012a1.927 1.927 0 01.028-.994l-.004.014zm.655 1.59a1.372 1.372 0 001.057.466c.391 0 .747-.144 1.02-.383l-.002.002c.185-.17.321-.385.395-.625a1.6 1.6 0 00-.327-1.472l.002.002a1.422 1.422 0 00-.635-.402L35 10.37c-.115-.032-.248-.05-.385-.05s-.27.018-.395.053l.011-.002a1.376 1.376 0 00-.681.346l.001-.001c-.182.167-.319.38-.392.62l-.003.01a1.478 1.478 0 00.002.785l-.002-.011c.058.259.179.484.346.666l-.001-.001zM32.465 17l1.295-.5c0-.09.03-.18.055-.275l.245-.905-1.06-.275.095-.355 3.38.905-.34 1.265a1.59 1.59 0 01-.577.927l-.004.003a1.07 1.07 0 01-.958.138l.008.002a1.087 1.087 0 01-.855-1.055l-1.38.5.095-.375zm1.675.14a.901.901 0 001.259.333l-.004.002a1.2 1.2 0 00.424-.697l.001-.008.24-.9-1.695-.455-.24.9a1.213 1.213 0 00.017.833l-.003-.008zm-3.47 3.08l-.255-.195 1.5-1.975 2.79 2.115-1.45 1.915-.255-.195 1.225-1.615-1-.755-1.095 1.445-.25-.19L33 19.325l-1.035-.785-1.295 1.68zm-1.17 3.985l-.715.04v-.24L29.5 24l-.385-.595.195-.125.38.6.31-.67.215.115-.34.63.715-.04v.245h-.725l.385.595-.195.125-.38-.6-.33.65-.21-.12.365-.605zm-6.5-.4l.605.335c.206-.39.562-.677.989-.788l.011-.002a1.56 1.56 0 01.621-.065h-.006c.189.015.36.08.503.182l-.003-.002c.133.1.232.24.28.4.06.198.05.41-.03.6a2.51 2.51 0 01-.5.695c.165.088.318.198.455.325a.856.856 0 01.205.345.668.668 0 01-.131.586l.001-.001a.963.963 0 01-.553.384l-.007.001a.871.871 0 01-.62 0 .624.624 0 01-.359-.421l-.001-.004a.674.674 0 01.037-.504l-.002.004c.121-.237.269-.439.445-.615l-1.205-.67a2.382 2.382 0 00-.03.715H23.4a2.41 2.41 0 01.104-.887l-.005.017-.63-.35.13-.28zm.87.5l1.325.735c.17-.163.312-.353.42-.563l.005-.012a.634.634 0 000-.45.542.542 0 00-.346-.374l-.004-.001a.985.985 0 00-.647.002l.007-.002a1.205 1.205 0 00-.777.643l-.003.007.02.015zm1.88 2a.451.451 0 00.039-.373l.001.003a.62.62 0 00-.16-.26 2.112 2.112 0 00-.403-.269l-.012-.006a2.663 2.663 0 00-.389.489l-.006.011a.493.493 0 00-.04.374l-.001-.004a.421.421 0 00.218.264l.002.001a.56.56 0 00.395 0 .6.6 0 00.334-.233l.001-.002.02.005zm-8.845 1.355l.07-3.5h.355l-.055 2.8 1.42-2.33h.175L20.2 27l.05-2.785h.355l-.065 3.5h-.305l-1.47-2.615-1.555 2.565-.305-.005zM15.165 24a1.7 1.7 0 01.452 1.742l.003-.012a1.783 1.783 0 01-.475.815 1.686 1.686 0 01-.794.438l-.011.002a1.934 1.934 0 01-.984-.033l.014.004a1.88 1.88 0 01-.841-.456l.001.001a1.675 1.675 0 01-.462-.778l-.003-.012a1.843 1.843 0 01.499-1.76c.212-.212.479-.369.778-.447l.012-.003a1.908 1.908 0 01.979.034l-.014-.003c.331.086.616.249.846.471l-.001-.001zm-1.705-.175a1.346 1.346 0 00-.645.36 1.448 1.448 0 00-.378.655l-.002.01c-.07.25-.07.515 0 .765.059.244.185.465.365.64.183.179.41.312.664.382l.011.003a1.585 1.585 0 00.785-.002l-.011.002c.245-.06.469-.184.65-.36.178-.179.31-.404.378-.655l.002-.01a1.416 1.416 0 00-.003-.78l.002.01a1.415 1.415 0 00-.37-.64 1.503 1.503 0 00-.67-.378l-.01-.002a1.416 1.416 0 00-.78.003l.01-.002zM9.675 21.5l.135 1.375c.085.037.169.078.25.125l.815.47.55-.97.325.185L10 25.7l-1.14-.655a1.6 1.6 0 01-.746-.79l-.004-.01a1.094 1.094 0 01.113-.954l-.003.004c.116-.219.3-.395.525-.5a1.138 1.138 0 01.728-.053l-.008-.002-.145-1.47.355.23zm-.57 1.58a.903.903 0 00-.644 1.132l-.002-.006c.117.259.32.469.575.595l.805.465.875-1.5-.805-.465a1.227 1.227 0 00-.741-.247l-.068.002h.003v.025zm-2.39-3.925l.225-.225 1.725 1.775-2.5 2.44-1.665-1.72.23-.225 1.415 1.455L7 21.79 5.76 20.5l.24-.23 1.265 1.3.93-.905-1.48-1.51zM3 17.19l.12-.69.235.035-.135.71.665-.245.08.22-.675.23.555.47-.16.18-.535-.5-.125.71-.24-.045.14-.71-.67.24-.075-.195.67-.235-.555-.465.165-.18.54.47z"/></symbol><symbol id="icon-mail" viewBox="0 0 32 32"><path fill="none" stroke="var(--color1, #9da4bd)" stroke-linejoin="round" stroke-linecap="round" stroke-width="1.333" d="M6.4 6.667h19.2C26.92 6.667 28 7.716 28 9v14c0 1.283-1.08 2.333-2.4 2.333H6.4C5.08 25.333 4 24.282 4 23V9c0-1.284 1.08-2.333 2.4-2.333z"/><path fill="none" stroke="var(--color1, #9da4bd)" stroke-linejoin="round" stroke-linecap="round" stroke-width="1.333" d="M26.667 9.333l-10.667 8-10.667-8"/></symbol><symbol id="icon-map-pin" viewBox="0 0 32 32"><path fill="none" stroke="var(--color1, #9da4bd)" stroke-linejoin="round" stroke-linecap="round" stroke-width="1.333" d="M26.667 13.819C26.667 21.454 16 28 16 28S5.333 21.453 5.333 13.819C5.333 8.396 10.109 4 16 4s10.667 4.396 10.667 9.819v0z"/><path fill="none" stroke="var(--color1, #9da4bd)" stroke-linejoin="round" stroke-linecap="round" stroke-width="1.333" d="M16 18.667a4 4 0 000-8v0a4 4 0 000 8v0z"/></symbol><symbol id="icon-phone" viewBox="0 0 32 32"><path fill="none" stroke="var(--color1, #9da4bd)" stroke-linejoin="round" stroke-linecap="round" stroke-width="1.333" d="M26.667 21.337v3.227A2.145 2.145 0 0124.32 26.7l.009.001c-3.481-.388-6.626-1.563-9.338-3.343l.081.05a21.09 21.09 0 01-6.386-6.353l-.05-.083a20.982 20.982 0 01-3.285-9.205l-.008-.095a2.145 2.145 0 012.136-2.338h3.239c1.079 0 1.972.797 2.123 1.834l.001.012c.136 1.029.387 2.04.751 3.013a2.144 2.144 0 01-.483 2.264l-1.363 1.361c1.555 2.7 3.736 4.881 6.353 6.392l.083.044 1.363-1.361a2.14 2.14 0 012.278-.477l-.015-.005c.973.363 1.984.613 3.013.751a2.148 2.148 0 011.847 2.125l-.001.056v-.003z"/></symbol><symbol id="icon-twitter" viewBox="0 0 32 32"><path d="M32 6.078c-1.1.493-2.376.857-3.713 1.028l-.068.007a6.556 6.556 0 002.873-3.579l.013-.046a12.88 12.88 0 01-4.076 1.573l-.084.014A6.558 6.558 0 0015.6 9.557v.004c0 .52.043 1.021.152 1.496-5.454-.266-10.28-2.88-13.522-6.861a6.524 6.524 0 00-.902 3.313v.001a6.57 6.57 0 002.914 5.451 6.453 6.453 0 01-2.994-.823l.033.017v.072a6.592 6.592 0 005.213 6.44l.043.008a6.403 6.403 0 01-1.662.215h-.061.003c-.419 0-.843-.024-1.242-.112.85 2.598 3.261 4.509 6.13 4.57a13.093 13.093 0 01-8.122 2.8H1.57h.001-.062c-.531 0-1.055-.034-1.569-.099l.061.006c2.826 1.846 6.287 2.944 10.004 2.944h.063-.003c12.072 0 18.672-10 18.672-18.669 0-.288-.01-.57-.024-.848a13.203 13.203 0 003.258-3.355l.03-.047z"/></symbol></defs></svg>